<?xml version="1.0" standalone="no"?><!DOCTYPE svg PUBLIC "-//W3C//DTD SVG 1.1//EN" "http://www.w3.org/Graphics/SVG/1.1/DTD/svg11.dtd"><svg t="1646896416833" class="icon" viewBox="0 0 1024 1024" version="1.1" xmlns="http://www.w3.org/2000/svg" p-id="2132" xmlns:xlink="http://www.w3.org/1999/xlink" width="200" height="200"><defs><style type="text/css"></style></defs><path d="M191.107 248.727l541.434-53.63 53.63 541.434-541.434 53.63z" fill="#FFFFFF" p-id="2133"></path><path d="M237.5 798.9l-55.2-557.3 557.3-55.2 55.2 557.3-557.3 55.2z m-37.7-543l52.1 525.5 525.5-52-52.1-525.5-525.5 52z" fill="#108EE9" p-id="2134"></path><path d="M287.204 285.607l544.1-2.404 2.404 544.1-544.1 2.404z" fill="#FFFFFF" p-id="2135"></path><path d="M281.6 837.7l-2.5-560.1 560.1-2.5 2.5 560.1-560.1 2.5z m13.6-544.2l2.3 528.1 528.1-2.3-2.3-528.1-528.1 2.3z" fill="#108EE9" p-id="2136"></path><path d="M685.2 827.9l-0.7-148.5 148.5-0.7c0.4 82.1-65.8 148.8-147.8 149.2z" fill="#FFFFFF" p-id="2137"></path><path d="M677.2 835.9l-0.7-164.5 164.5-0.7v8c0.4 86.3-69.5 156.8-155.8 157.2h-8z m15.4-148.5l0.6 132.2c34.5-2.1 66.6-16.6 91.1-41.3 24.5-24.7 38.7-57 40.5-91.5l-132.2 0.6z" fill="#108EE9" p-id="2138"></path></svg>