<?xml version="1.0" standalone="no"?><!DOCTYPE svg PUBLIC "-//W3C//DTD SVG 1.1//EN" "http://www.w3.org/Graphics/SVG/1.1/DTD/svg11.dtd"><svg t="1655275383090" class="icon" viewBox="0 0 1024 1024" version="1.1" xmlns="http://www.w3.org/2000/svg" p-id="3404" xmlns:xlink="http://www.w3.org/1999/xlink" width="200" height="200"><defs><style type="text/css"></style></defs><path d="M965.818182 897.954909a34.909091 34.909091 0 1 1 0 69.818182h-884.363637a34.909091 34.909091 0 1 1 0-69.818182h884.363637z m-0.395637-633.134545L411.415273 818.850909l-215.970909 22.062546 22.085818-215.97091 481.722182-481.745454v-0.023273l72.285091-72.261818c32.488727-32.488727 89.134545-32.488727 121.623272 0l72.261818 72.285091a85.457455 85.457455 0 0 1 25.204364 60.811636c0 22.970182-8.96 44.567273-25.204364 60.811637zM273.617455 762.740364l105.984-10.821819 439.482181-439.505454-95.138909-95.162182-439.505454 439.482182-10.821818 106.007273zM832.349091 115.549091a16.058182 16.058182 0 0 0-11.450182 4.747636l-47.592727 47.569455 95.162182 95.185454 47.569454-47.592727a16.197818 16.197818 0 0 0 0-22.900364l-72.238545-72.261818a16.104727 16.104727 0 0 0-11.450182-4.747636z" fill="#d81e06" p-id="3405"></path></svg>