<?xml version="1.0" standalone="no"?><!DOCTYPE svg PUBLIC "-//W3C//DTD SVG 1.1//EN" "http://www.w3.org/Graphics/SVG/1.1/DTD/svg11.dtd"><svg t="1648027634424" class="icon" viewBox="0 0 1024 1024" version="1.1" xmlns="http://www.w3.org/2000/svg" p-id="12368" xmlns:xlink="http://www.w3.org/1999/xlink" width="200" height="200"><defs><style type="text/css"></style></defs><path d="M292.096 905.28a25.6 25.6 0 0 1-18.112-7.488l-166.976-166.976a25.6 25.6 0 0 1 0-36.224L774.912 26.688a25.6 25.6 0 0 1 36.224 0l166.976 166.976a25.6 25.6 0 0 1 0 36.224L310.208 897.792a25.6 25.6 0 0 1-18.112 7.488z m-130.752-192.576l130.752 130.816 631.68-631.744-130.752-130.752-631.68 631.68z" p-id="12369"></path><path d="M64 966.4a25.6 25.6 0 0 1-24.768-32.192l61.12-228.096a25.6 25.6 0 0 1 42.816-11.456l166.976 166.976a25.6 25.6 0 0 1-11.456 42.816l-228.096 61.12a26.048 26.048 0 0 1-6.656 0.896z m74.368-204.288l-38.144 142.464 142.464-38.144-104.256-104.32zM721.408 116.48l167.04 166.976-54.336 54.336-167.04-166.976 54.336-54.336zM346.368 625.6a25.6 25.6 0 0 1-18.112-43.712l250.496-250.432a25.6 25.6 0 0 1 36.224 36.224L364.48 618.112a25.472 25.472 0 0 1-18.112 7.488z" p-id="12370"></path><path d="M960 1004.8H64a25.6 25.6 0 1 1 0-51.2h896a25.6 25.6 0 1 1 0 51.2z" p-id="12371"></path></svg>