<?xml version="1.0" standalone="no"?><!DOCTYPE svg PUBLIC "-//W3C//DTD SVG 1.1//EN" "http://www.w3.org/Graphics/SVG/1.1/DTD/svg11.dtd"><svg t="1655275338465" class="icon" viewBox="0 0 1024 1024" version="1.1" xmlns="http://www.w3.org/2000/svg" p-id="3058" xmlns:xlink="http://www.w3.org/1999/xlink" width="200" height="200"><defs><style type="text/css"></style></defs><path d="M756.037818 539.624727c61.998545 40.634182 93.486545 96.977455 93.486546 169.053091 0 71.493818-30.487273 128.954182-90.274909 171.194182-57.437091 39.796364-133.632 59.764364-228.584728 59.764364-96.116364 0-172.334545-22.272-227.421091-65.629091-63.301818-50.408727-98.443636-126.650182-105.495272-227.421091h70.330181c8.215273 78.498909 35.165091 137.146182 82.059637 175.825454 42.193455 34.001455 102.004364 51.595636 179.362909 51.595637 73.844364 0 133.632-15.290182 179.339636-43.426909 44.544-29.253818 68.002909-69.12 68.002909-118.365091 0-57.437091-29.323636-101.981091-85.597091-133.632-18.338909-10.705455-50.641455-23.901091-97.256727-38.958546H221.090909a34.909091 34.909091 0 0 1 0-69.818182h145.105455c-22.853818-8.448-39.959273-15.965091-51.2-22.528-64.512-36.328727-96.162909-89.088-96.162909-157.044363 0-72.680727 29.323636-127.790545 90.298181-166.469818C363.008 87.412364 433.338182 69.818182 517.748364 69.818182c91.461818 0 164.119273 22.272 218.018909 66.816 55.109818 44.544 86.760727 110.173091 93.789091 196.957091h-71.517091c-9.355636-65.629091-33.978182-114.874182-73.844364-148.875637-39.866182-34.001455-96.116364-50.408727-168.797091-50.408727-68.002909 0-120.738909 11.729455-159.418182 35.141818-44.544 25.832727-65.629091 65.675636-65.629091 118.411637 0 46.917818 25.762909 83.223273 78.49891 111.36 24.669091 11.729455 78.545455 30.510545 160.628363 53.922909 20.014545 5.725091 38.772364 11.264 56.32 16.663272H826.181818a34.909091 34.909091 0 0 1 0 69.818182h-70.144z" fill="#d81e06" p-id="3059"></path></svg>