<?xml version="1.0" standalone="no"?><!DOCTYPE svg PUBLIC "-//W3C//DTD SVG 1.1//EN" "http://www.w3.org/Graphics/SVG/1.1/DTD/svg11.dtd"><svg t="1689828618048" class="icon" viewBox="0 0 1024 1024" version="1.1" xmlns="http://www.w3.org/2000/svg" p-id="4686" xmlns:xlink="http://www.w3.org/1999/xlink" width="200" height="200"><path d="M865.3 717.7H750.1V655h115.2V461.1H928v193.8c0 34.6-28.1 62.8-62.7 62.8z" fill="#4D4D4D" p-id="4687"></path><path d="M896.6 602.9c-17.3 0-31.4-14-31.4-31.4V389.3c0-17.3 14-31.4 31.4-31.4s31.4 14 31.4 31.4v182.2c0 17.3-14 31.4-31.4 31.4zM719.7 936.9H158.3c-34.6 0-62.7-28.1-62.7-62.7V309.5c0-34.6 28.1-62.7 62.7-62.7h561.4c34.6 0 62.7 28.1 62.7 62.7v564.7c0 34.5-28.1 62.7-62.7 62.7zM158.3 309.5v564.7h561.4V309.5H158.3zM895.4 229.4c-17.3 0-31.4-14-31.4-31.4v-52.7c0-17.3 14-31.4 31.4-31.4s31.4 14 31.4 31.4V198c-0.1 17.4-14.1 31.4-31.4 31.4z" fill="#4D4D4D" p-id="4688"></path><path d="M346.5 281.2h-62.7V144.4c0-34.6 28.1-62.7 62.7-62.7H864c34.6 0 62.7 27.7 62.7 61.6v30.3H864v-29.2H346.5v136.8z" fill="#4D4D4D" p-id="4689"></path><path d="M895.4 293.9m-31.4 0a31.4 31.4 0 1 0 62.8 0 31.4 31.4 0 1 0-62.8 0Z" fill="#4D4D4D" p-id="4690"></path><path d="M402.9 740.5c-6.5 0-13-2-18.6-6.1-14-10.3-16.9-29.9-6.7-43.9L575.3 422c10.3-13.9 29.9-16.9 43.8-6.7 14 10.3 16.9 29.9 6.7 43.8L428.2 727.7c-6.2 8.3-15.7 12.8-25.3 12.8z" fill="#4D4D4D" p-id="4691"></path><path d="M400.5 739.5c-6.9 0-13.8-2.2-19.6-6.9l-121.4-96.9c-13.5-10.8-15.7-30.5-4.9-44.1 10.8-13.5 30.5-15.8 44.1-4.9l121.4 96.9c13.5 10.8 15.7 30.5 4.9 44.1-6.2 7.7-15.3 11.8-24.5 11.8z" fill="#4D4D4D" p-id="4692"></path></svg>