<?xml version="1.0" standalone="no"?><!DOCTYPE svg PUBLIC "-//W3C//DTD SVG 1.1//EN" "http://www.w3.org/Graphics/SVG/1.1/DTD/svg11.dtd"><svg t="1683622193311" class="icon" viewBox="0 0 1024 1024" version="1.1" xmlns="http://www.w3.org/2000/svg" p-id="3833" xmlns:xlink="http://www.w3.org/1999/xlink" width="200" height="200"><path d="M832 831.89l-0.11 0.11H192.11l-0.11-0.11V192.11l0.11-0.11H704v-64H192a64.19 64.19 0 0 0-64 64v640a64.19 64.19 0 0 0 64 64h640a64.19 64.19 0 0 0 64-64V320h-64z" p-id="3834"></path><path d="M832 128L512 448l-96-96-32-32-64 64 96 96 96 96 64-64 320-320-64-64z" p-id="3835"></path></svg>