<?xml version="1.0" standalone="no"?><!DOCTYPE svg PUBLIC "-//W3C//DTD SVG 1.1//EN" "http://www.w3.org/Graphics/SVG/1.1/DTD/svg11.dtd"><svg t="1648610668702" class="icon" viewBox="0 0 1024 1024" version="1.1" xmlns="http://www.w3.org/2000/svg" p-id="2200" xmlns:xlink="http://www.w3.org/1999/xlink" width="200" height="200"><defs><style type="text/css"></style></defs><path d="M174.08 225.28c-12.288 0-20.48-8.192-20.48-20.48s8.192-20.48 20.48-20.48h675.84c12.288 0 20.48 8.192 20.48 20.48s-8.192 20.48-20.48 20.48h-675.84z m133.12 143.36c-12.288 0-20.48-8.192-20.48-20.48s8.192-20.48 20.48-20.48h409.6c12.288 0 20.48 8.192 20.48 20.48s-8.192 20.48-20.48 20.48h-409.6z m-133.12 143.36c-12.288 0-20.48-8.192-20.48-20.48s8.192-20.48 20.48-20.48h675.84c12.288 0 20.48 8.192 20.48 20.48s-8.192 20.48-20.48 20.48h-675.84z m133.12 163.84c-12.288 0-20.48-8.192-20.48-20.48s8.192-20.48 20.48-20.48h409.6c12.288 0 20.48 8.192 20.48 20.48s-8.192 20.48-20.48 20.48h-409.6z m-133.12 163.84c-12.288 0-20.48-8.192-20.48-20.48s8.192-20.48 20.48-20.48h675.84c12.288 0 20.48 8.192 20.48 20.48s-8.192 20.48-20.48 20.48h-675.84z" p-id="2201" fill="#d81e06"></path></svg>